<svg width="377" height="230" viewBox="0 0 377 230" fill="none" xmlns="http://www.w3.org/2000/svg">
<path fill-rule="evenodd" clip-rule="evenodd" d="M119 229.932C117.672 229.977 116.339 230 115 230C51.4872 230 0 178.513 0 115C0 51.4873 51.4872 0 115 0C178.513 0 230 51.4873 230 115C230 162.668 200.997 203.563 159.675 221H377V230H119V229.932ZM143.077 46.1538C143.077 61.4479 130.679 73.8462 115.385 73.8462C100.091 73.8462 87.6923 61.4479 87.6923 46.1538C87.6923 30.8598 100.091 18.4615 115.385 18.4615C130.679 18.4615 143.077 30.8598 143.077 46.1538ZM115.491 129.444C123.197 129.444 129.444 123.197 129.444 115.491C129.444 107.785 123.197 101.538 115.491 101.538C107.785 101.538 101.538 107.785 101.538 115.491C101.538 123.197 107.785 129.444 115.491 129.444ZM212.308 115.385C212.308 130.679 199.909 143.077 184.615 143.077C169.321 143.077 156.923 130.679 156.923 115.385C156.923 100.091 169.321 87.6923 184.615 87.6923C199.909 87.6923 212.308 100.091 212.308 115.385ZM46.1538 143.077C61.4479 143.077 73.8462 130.679 73.8462 115.385C73.8462 100.091 61.4479 87.6923 46.1538 87.6923C30.8598 87.6923 18.4615 100.091 18.4615 115.385C18.4615 130.679 30.8598 143.077 46.1538 143.077ZM143.077 184.615C143.077 199.909 130.679 212.308 115.385 212.308C100.091 212.308 87.6923 199.909 87.6923 184.615C87.6923 169.321 100.091 156.923 115.385 156.923C130.679 156.923 143.077 169.321 143.077 184.615Z" fill="#00DF54"/>
</svg>
